<?xml version="1.0" encoding="utf-8"?><svg xmlns="http://www.w3.org/2000/svg" xmlns:xlink="http://www.w3.org/1999/xlink"><symbol viewBox="0 0 284 96" id="bg-circle-2" xmlns="http://www.w3.org/2000/svg"><defs><clipPath id="aa"><path d="M56.8 0c0 31.37-25.43 56.8-56.8 56.8-31.37 0-56.8-25.43-56.8-56.8 0-31.37 25.43-56.8 56.8-56.8 31.37 0 56.8 25.43 56.8 56.8z"/></clipPath><clipPath id="ab"><path d="M113.6 0c0 62.74-50.86 113.6-113.6 113.6-62.74 0-113.6-50.86-113.6-113.6 0-62.74 50.86-113.6 113.6-113.6 62.74 0 113.6 50.86 113.6 113.6z"/></clipPath><clipPath id="ac"><path d="M170.4 0c0 94.109-76.291 170.4-170.4 170.4-94.11 0-170.4-76.291-170.4-170.4 0-94.11 76.29-170.4 170.4-170.4 94.109 0 170.4 76.29 170.4 170.4z"/></clipPath><clipPath id="ad"><path d="M227.2 0c0 125.479-101.721 227.2-227.2 227.2-125.479 0-227.2-101.721-227.2-227.2 0-125.479 101.721-227.2 227.2-227.2 125.479 0 227.2 101.721 227.2 227.2z"/></clipPath><clipPath id="ae"><path d="M284 0c0 156.849-127.151 284-284 284S-284 156.849-284 0-156.849-284 0-284 284-156.849 284 0z"/></clipPath></defs><g clip-path="url(#clip-88:598)" opacity=".8"><path d="M56.8 0c0 31.37-25.43 56.8-56.8 56.8-31.37 0-56.8-25.43-56.8-56.8 0-31.37 25.43-56.8 56.8-56.8 31.37 0 56.8 25.43 56.8 56.8z" clip-path="url(#aa)" opacity=".8"/><path d="M113.6 0c0 62.74-50.86 113.6-113.6 113.6-62.74 0-113.6-50.86-113.6-113.6 0-62.74 50.86-113.6 113.6-113.6 62.74 0 113.6 50.86 113.6 113.6z" clip-path="url(#ab)" opacity=".8"/><path d="M170.4 0c0 94.109-76.291 170.4-170.4 170.4-94.11 0-170.4-76.291-170.4-170.4 0-94.11 76.29-170.4 170.4-170.4 94.109 0 170.4 76.29 170.4 170.4z" clip-path="url(#ac)" opacity=".8"/><path d="M227.2 0c0 125.479-101.721 227.2-227.2 227.2-125.479 0-227.2-101.721-227.2-227.2 0-125.479 101.721-227.2 227.2-227.2 125.479 0 227.2 101.721 227.2 227.2z" clip-path="url(#ad)" opacity=".8"/><path d="M284 0c0 156.849-127.151 284-284 284S-284 156.849-284 0-156.849-284 0-284 284-156.849 284 0z" clip-path="url(#ae)" opacity=".8"/></g></symbol><symbol viewBox="0 0 164 164" id="bg-circles" xmlns="http://www.w3.org/2000/svg"><path d="M6.593 0C2.32 12.55 0 26.004 0 40c0 68.483 55.517 124 124 124 13.996 0 27.45-2.319 40-6.593v-1.057c-12.54 4.31-25.997 6.65-40 6.65C56.069 163 1 107.931 1 40 1 25.997 3.34 12.54 7.65 0H6.593z" fill-opacity=".2"/><path d="M41.127 0C35.28 12.095 32 25.665 32 40c0 50.81 41.19 92 92 92 14.335 0 27.905-3.279 40-9.127v-1.113c-12.073 5.918-25.648 9.24-40 9.24-50.258 0-91-40.742-91-91 0-14.352 3.322-27.927 9.24-40h-1.113z" fill-opacity=".4"/><path d="M79.278 0C69.778 10.615 64 24.633 64 40c0 33.137 26.863 60 60 60 15.367 0 29.385-5.777 40-15.278v-1.351C153.486 93.073 139.435 99 124 99c-32.585 0-59-26.415-59-59 0-15.435 5.927-29.486 15.63-40h-1.352z" fill-opacity=".6"/></symbol><symbol viewBox="0 0 16 10" id="icon-arr-back-yellow" xmlns="http://www.w3.org/2000/svg"><path d="M.29 4.286l4-3.996a1.003 1.003 0 011.42 1.418l-2.3 2.288H15a1 1 0 01.707 1.705 1 1 0 01-.707.293H3.41l2.3 2.288a1 1 0 01-.325 1.637A1.001 1.001 0 014.29 9.7l-4-3.996a1 1 0 01-.21-.33.998.998 0 010-.759 1 1 0 01.21-.33z"/></symbol><symbol viewBox="0 0 12 8" id="icon-arr-down" xmlns="http://www.w3.org/2000/svg"><path d="M11 1.17a1 1 0 00-1.41 0L6 4.71 2.46 1.17a1 1 0 10-1.41 1.42l4.24 4.24a1 1 0 001.42 0L11 2.59a1 1 0 000-1.42z"/></symbol><symbol viewBox="0 0 8 12" id="icon-arr-right" xmlns="http://www.w3.org/2000/svg"><path d="M1.17 1a1 1 0 000 1.41L4.71 6 1.17 9.54a1 1 0 101.42 1.41l4.24-4.24a1 1 0 000-1.42L2.59 1a1 1 0 00-1.42 0z"/></symbol><symbol viewBox="0 0 16 11" id="icon-arr-slide" xmlns="http://www.w3.org/2000/svg"><path d="M15.71 5.286l-4-3.996a1.003 1.003 0 00-1.42 1.418l2.3 2.288H1a1 1 0 00-.707 1.705A1 1 0 001 6.994h11.59l-2.3 2.288a1 1 0 00.325 1.637 1.001 1.001 0 001.095-.219l4-3.996a1 1 0 00.21-.33c.1-.243.1-.515 0-.759a1 1 0 00-.21-.33z"/></symbol><symbol viewBox="0 0 30 18" id="icon-card" xmlns="http://www.w3.org/2000/svg"><path fill-rule="evenodd" clip-rule="evenodd" d="M28 1H2a1 1 0 00-1 1v14a1 1 0 001 1h26a1 1 0 001-1V2a1 1 0 00-1-1zM2 0a2 2 0 00-2 2v14a2 2 0 002 2h26a2 2 0 002-2V2a2 2 0 00-2-2H2z"/><path d="M1 4h28v1H1V4zm0 4h28v1H1V8z"/></symbol><symbol viewBox="0 0 30 18" id="icon-card-2" xmlns="http://www.w3.org/2000/svg"><path d="M23 6c0 .715-.25 1.37-.667 1.886a2 2 0 100-3.772C22.75 4.629 23 5.285 23 6z"/><path fill-rule="evenodd" clip-rule="evenodd" d="M2 0a2 2 0 00-2 2v14a2 2 0 002 2h26a2 2 0 002-2V2a2 2 0 00-2-2H2zm18 9c.546 0 1.059-.146 1.5-.401a3 3 0 100-5.197A3 3 0 1020 9zM4.5 14a.5.5 0 000 1h3a.5.5 0 000-1h-3zM4 11.5a.5.5 0 01.5-.5h9a.5.5 0 010 1h-9a.5.5 0 01-.5-.5zm6.5 2.5a.5.5 0 000 1h3a.5.5 0 000-1h-3zm5.5.5a.5.5 0 01.5-.5h3a.5.5 0 010 1h-3a.5.5 0 01-.5-.5zm6.5-.5a.5.5 0 000 1h3a.5.5 0 000-1h-3z"/></symbol><symbol viewBox="0 0 21 18" id="icon-cash" xmlns="http://www.w3.org/2000/svg"><path d="M19.031 5.143h-.656V3.214a.65.65 0 00-.656-.642H1.969C.883 2.572 0 3.437 0 4.5v11.571C0 17.135.883 18 1.969 18H19.03a.65.65 0 00.657-.643V5.786a.65.65 0 00-.657-.643z"/><path d="M1.969 3.857h15.094v1.286H1.969a.65.65 0 01-.657-.643.65.65 0 01.657-.643zM20.344 12.857h-3.938c-1.086 0-1.968-.864-1.968-1.928 0-1.066.881-1.929 1.968-1.929h3.938a.65.65 0 01.656.643v2.571a.65.65 0 01-.656.643z"/><path d="M16.812 5.143L14.368.355a.665.665 0 00-.88-.288L3.125 5.143h13.686z"/><path d="M1.313 5.143h12.874L11.743.355a.663.663 0 00-.88-.287l-9.55 4.678v.397z"/></symbol><symbol viewBox="0 0 10 10" id="icon-cross" xmlns="http://www.w3.org/2000/svg"><path fill-rule="evenodd" clip-rule="evenodd" d="M.28 1.619l3.4 3.36-3.4 3.407a.943.943 0 000 1.339.961.961 0 00.68.275.97.97 0 00.682-.275L5 6.369l3.357 3.356a.961.961 0 00.682.275.97.97 0 00.682-.275.943.943 0 000-1.339L6.32 4.98l3.4-3.36A.943.943 0 009.408.073a.97.97 0 00-1.051.208L5 3.598 1.643.28A.961.961 0 00.961 0 .97.97 0 00.28.28a.943.943 0 000 1.339z" fill-opacity=".3"/></symbol><symbol viewBox="0 0 16 14" id="icon-dislike" xmlns="http://www.w3.org/2000/svg"><path d="M8.68 13.68L4.712 9.678a1.45 1.45 0 01-.415-1.018V1.445C4.297.65 4.94 0 5.729 0h6.445c.573 0 1.089.347 1.318.874l2.335 5.496c.601 1.43-.437 3.02-1.977 3.02H9.804l.68 3.307c.072.361-.036.73-.293.99a1.06 1.06 0 01-1.511-.007zM1.432 0c.788 0 1.433.65 1.433 1.445v5.778c0 .794-.645 1.444-1.433 1.444C.645 8.667 0 8.017 0 7.223V1.445C0 .65.645 0 1.432 0z" fill-opacity=".1"/></symbol><symbol viewBox="0 0 24 16" id="icon-dollar" xmlns="http://www.w3.org/2000/svg"><rect width="24" height="16" rx="2"/><path fill-rule="evenodd" clip-rule="evenodd" d="M2 11.035v-6.07A3.502 3.502 0 004.965 2h14.07A3.502 3.502 0 0022 4.965v6.07A3.503 3.503 0 0019.035 14H4.965A3.502 3.502 0 002 11.035zM12 11a3 3 0 100-6 3 3 0 000 6z"/></symbol><symbol viewBox="0 0 16 14" id="icon-like" xmlns="http://www.w3.org/2000/svg"><path d="M8.68.32L4.712 4.323a1.45 1.45 0 00-.415 1.018v7.216c0 .794.644 1.444 1.432 1.444h6.445c.573 0 1.089-.347 1.318-.874l2.335-5.496c.601-1.43-.437-3.02-1.977-3.02H9.804l.68-3.307a1.095 1.095 0 00-.293-.99A1.06 1.06 0 008.68.321zM1.432 14c.788 0 1.433-.65 1.433-1.444V6.777c0-.794-.645-1.444-1.433-1.444C.645 5.333 0 5.983 0 6.777v5.779C0 13.35.645 14 1.432 14z"/></symbol><symbol viewBox="0 0 25 16" id="icon-mc" xmlns="http://www.w3.org/2000/svg"><path d="M9.123 1.711h6.76V14.29h-6.76V1.71z"/><path d="M9.553 8a8.128 8.128 0 012.94-6.289A7.513 7.513 0 007.728 0C3.458 0 .003 3.578.003 8c0 4.422 3.455 8 7.725 8a7.513 7.513 0 004.764-1.711c-1.78-1.445-2.94-3.733-2.94-6.289zM25.003 8c0 4.422-3.455 8-7.725 8a7.513 7.513 0 01-4.764-1.711c1.802-1.467 2.94-3.733 2.94-6.289a8.128 8.128 0 00-2.94-6.289A7.513 7.513 0 0117.278 0c4.27 0 7.725 3.6 7.725 8z"/></symbol><symbol viewBox="0 0 42 12" id="icon-mir" xmlns="http://www.w3.org/2000/svg"><path fill-rule="evenodd" clip-rule="evenodd" d="M11.318 0v.005c-.006 0-1.64-.005-2.077 1.572-.4 1.447-1.526 5.44-1.557 5.55h-.312S6.219 3.045 5.815 1.572C5.378-.005 3.738 0 3.738 0H0v12h3.738V4.873h.311L6.23 12h2.597l2.18-7.121h.312v7.12h3.738V0h-3.738zm13.654 0s-1.095.1-1.61 1.258l-2.647 5.869h-.312V0h-3.737v12h3.53s1.147-.105 1.661-1.258l2.596-5.869h.311V12h3.738V0h-3.53zm5.191 5.45V12H33.9V8.175h4.049a4.047 4.047 0 003.816-2.725H30.163zM37.95 0h-8.31a6.006 6.006 0 004.309 4.716 5.92 5.92 0 001.562.21h6.407c.057-.273.083-.55.083-.839C42 1.83 40.188 0 37.95 0z"/><defs><linearGradient id="opaint0_linear" x1="29.64" y1="2.463" x2="42" y2="2.463" gradientUnits="userSpaceOnUse"><stop offset=".3" stop-color="#00B4E6"/><stop offset="1" stop-color="#088CCB"/></linearGradient></defs></symbol><symbol viewBox="0 0 30 18" id="icon-money" xmlns="http://www.w3.org/2000/svg"><path fill-rule="evenodd" clip-rule="evenodd" d="M28 1H2a1 1 0 00-1 1v14a1 1 0 001 1h26a1 1 0 001-1V2a1 1 0 00-1-1zM2 0a2 2 0 00-2 2v14a2 2 0 002 2h26a2 2 0 002-2V2a2 2 0 00-2-2H2z"/><path fill-rule="evenodd" clip-rule="evenodd" d="M0 4.917A4.167 4.167 0 004.917 0H3.889A3.17 3.17 0 010 3.89v1.027zm30 0A4.167 4.167 0 0125.083 0h1.028A3.167 3.167 0 0030 3.89v1.027zm0 8.166A4.167 4.167 0 0025.083 18h1.028A3.167 3.167 0 0130 14.11v-1.027zm-30 0A4.167 4.167 0 014.917 18H3.889A3.17 3.17 0 000 14.11v-1.027z"/><path d="M12 4h1v10h-1V4z"/><path fill-rule="evenodd" clip-rule="evenodd" d="M16.5 5h-4V4h4c.413 0 1.022.12 1.542.494.546.393.958 1.043.958 2.006v1c0 .413-.12 1.022-.494 1.542-.393.546-1.043.958-2.006.958h-4V9h4c.637 0 .987-.254 1.194-.542.226-.314.306-.705.306-.958v-1c0-.637-.254-.987-.542-1.194A1.736 1.736 0 0016.5 5z"/><path d="M11 11h6v1h-6v-1z"/></symbol><symbol viewBox="0 0 16 12" id="icon-quote" xmlns="http://www.w3.org/2000/svg"><path d="M11.976 0c1.042 0 1.973.465 2.793 1.394.82.93 1.231 2.257 1.231 3.984 0 1.958-.505 3.551-1.515 4.78C13.475 11.386 12.071 12 10.272 12c-.6 0-1.089-.05-1.467-.15V9.86c.347.066.836.1 1.467.1 1.262 0 2.13-.548 2.604-1.644.442-.697.663-1.527.663-2.49-.38.499-.979.748-1.8.748-.851 0-1.562-.3-2.13-.897-.6-.597-.899-1.377-.899-2.34 0-.963.3-1.76.9-2.39.6-.63 1.388-.946 2.366-.946zm-8.71 0C4.308 0 5.24.465 6.06 1.394c.82.93 1.23 2.257 1.23 3.984 0 1.958-.504 3.551-1.514 4.78C4.765 11.386 3.361 12 1.562 12c-.6 0-1.089-.05-1.467-.15V9.86c.347.066.836.1 1.467.1 1.262 0 2.13-.548 2.604-1.644.441-.697.662-1.527.662-2.49-.378.499-.978.748-1.798.748-.852 0-1.563-.3-2.13-.897C.3 5.08 0 4.3 0 3.336c0-.963.3-1.76.9-2.39C1.498.316 2.287 0 3.265 0z"/></symbol><symbol viewBox="0 0 16 16" id="icon-search" xmlns="http://www.w3.org/2000/svg"><path d="M15.775 14.651l-2.966-2.944a7.205 7.205 0 00-.811-9.869 7.192 7.192 0 00-9.89.271 7.204 7.204 0 004.498 12.27 7.192 7.192 0 005.092-1.56l2.942 2.944a.8.8 0 001.135 0 .8.8 0 000-1.112zM7.212 12.82a5.594 5.594 0 01-5.17-3.458A5.605 5.605 0 016.12 1.725a5.593 5.593 0 015.745 2.381 5.604 5.604 0 01-.696 7.072 5.595 5.595 0 01-3.958 1.64z"/></symbol><symbol viewBox="0 0 16 16" id="icon-star" xmlns="http://www.w3.org/2000/svg"><path d="M7.142.557L5.189 4.694l-4.37.665C.036 5.478-.278 6.487.29 7.065l3.161 3.218-.747 4.547c-.135.822.693 1.437 1.387 1.053L8 13.736l3.909 2.147c.694.381 1.522-.231 1.387-1.053l-.747-4.546 3.16-3.219c.57-.578.255-1.587-.528-1.706l-4.37-.665L8.858.557a.94.94 0 00-1.716 0z"/></symbol><symbol viewBox="0 0 44 14" id="icon-visa" xmlns="http://www.w3.org/2000/svg"><path d="M16.708.247l-5.76 13.54h-3.76L4.354 2.982c-.172-.664-.32-.908-.844-1.189C2.655 1.334 1.243.906.002.64L.086.247h6.05c.77 0 1.464.505 1.64 1.38l1.498 7.836L12.973.247h3.735zm5.08 0l-2.939 13.54h-3.556l2.94-13.54h3.556zm9.646 9.12c.014-3.573-5.015-3.772-4.982-5.368.012-.485.481-1.002 1.509-1.134.508-.065 1.914-.117 3.506.606L32.09.598A9.712 9.712 0 0028.764 0c-3.514 0-5.987 1.84-6.007 4.475-.023 1.95 1.766 3.037 3.112 3.686 1.386.663 1.85 1.09 1.844 1.682-.01.909-1.107 1.311-2.127 1.326-1.788.028-2.824-.476-3.651-.856l-.646 2.968c.832.376 2.365.702 3.953.719 3.737 0 6.18-1.818 6.192-4.633zm9.281 4.42h3.287L41.13.248h-3.033c-.684 0-1.259.391-1.514.993l-5.335 12.548h3.734l.74-2.023h4.562l.431 2.022zM36.746 8.99l1.872-5.085 1.076 5.085h-2.948z"/></symbol><symbol viewBox="0 0 232 48" id="logo" xmlns="http://www.w3.org/2000/svg"><path d="M73.071 23.515c1.006.098 1.828.503 2.466 1.216.654.697.981 1.62.981 2.771 0 1.459-.479 2.61-1.436 3.452-.957.843-2.266 1.264-3.925 1.264H64V15.202h6.893c1.66 0 2.968.397 3.926 1.19.973.779 1.46 1.856 1.46 3.234 0 1.086-.287 1.96-.862 2.625-.574.649-1.356 1.07-2.346 1.264zm-3.04-5.47h-2.154v4.133h2.155c.734 0 1.308-.178 1.723-.534.43-.373.646-.884.646-1.532s-.207-1.15-.622-1.507c-.415-.373-.997-.56-1.747-.56zm.264 11.183c.718 0 1.284-.194 1.7-.583.414-.405.622-.956.622-1.653 0-.632-.216-1.135-.647-1.508-.415-.389-.973-.583-1.675-.583h-2.418v4.327h2.418zm13.834 3.355c-1.883 0-3.383-.567-4.5-1.702-1.117-1.15-1.675-2.658-1.675-4.521 0-1.864.558-3.363 1.675-4.498 1.117-1.134 2.617-1.701 4.5-1.701 1.707 0 3.096.43 4.165 1.288 1.069.86 1.675 2.026 1.819 3.5H86.45c-.272-1.101-1.037-1.652-2.298-1.652-.798 0-1.42.267-1.867.802-.447.535-.67 1.288-.67 2.26 0 .973.223 1.727.67 2.261.447.535 1.069.803 1.867.803 1.26 0 2.026-.519 2.298-1.556h3.662c-.144 1.442-.75 2.593-1.82 3.452-1.068.842-2.457 1.264-4.164 1.264zm19.824-6.831c0 .486-.032 1.029-.096 1.629h-8.521c.032.761.287 1.353.766 1.774.478.422 1.125.632 1.938.632 1.117 0 1.835-.364 2.155-1.094h3.59c-.176 1.151-.798 2.09-1.867 2.82-1.053.713-2.346 1.07-3.878 1.07-1.962 0-3.51-.551-4.643-1.653-1.133-1.102-1.7-2.626-1.7-4.57 0-1.913.567-3.42 1.7-4.522 1.133-1.118 2.64-1.677 4.524-1.677 1.787 0 3.239.518 4.356 1.555 1.117 1.038 1.676 2.383 1.676 4.036zm-8.617-.68h5.002c-.016-.779-.231-1.378-.646-1.8-.415-.421-1.013-.632-1.795-.632s-1.404.227-1.867.681c-.447.438-.678 1.021-.694 1.75zm10.711 7.146V20.501h5.482l2.704 7.487 2.729-7.487h5.409v11.717h-3.494v-8.605l-3.256 8.605h-2.752l-3.327-8.605v8.605h-3.495zm32.667-8.605l6.654 8.605h-4.596l-5.577-7.803v7.803h-3.877V15.202h3.877v7.074h.431c.527 0 .965-.308 1.316-.924l2.466-3.938c.526-.86 1.053-1.459 1.58-1.8.526-.356 1.172-.534 1.938-.534h1.604v3.452h-.79c-.542 0-1.085.43-1.628 1.288l-1.795 2.918a1.627 1.627 0 01-.622.656 1.666 1.666 0 01-.79.219h-.191zm15.775-3.428c1.58 0 2.856.567 3.83 1.702.989 1.134 1.484 2.625 1.484 4.473 0 1.83-.503 3.322-1.508 4.473-1.006 1.134-2.306 1.701-3.902 1.701-.829 0-1.571-.186-2.226-.559-.654-.373-1.133-.843-1.436-1.41v6.515h-3.662V20.501h3.662v1.677c.303-.583.798-1.061 1.484-1.434a4.684 4.684 0 012.274-.559zm-1.149 9.262c.798 0 1.452-.284 1.963-.85.51-.584.766-1.33.766-2.237 0-.908-.256-1.645-.766-2.212-.511-.568-1.165-.851-1.963-.851-.83 0-1.5.283-2.01.85-.511.568-.766 1.305-.766 2.213 0 .923.255 1.669.766 2.236.526.567 1.196.85 2.01.85zm20.081-3.695c0 .486-.032 1.029-.096 1.629h-8.521c.032.761.287 1.353.766 1.774.479.422 1.125.632 1.939.632 1.117 0 1.835-.364 2.154-1.094h3.59c-.175 1.151-.798 2.09-1.867 2.82-1.053.713-2.345 1.07-3.877 1.07-1.963 0-3.511-.551-4.644-1.653-1.133-1.102-1.699-2.626-1.699-4.57 0-1.913.566-3.42 1.699-4.522 1.133-1.118 2.641-1.677 4.524-1.677 1.787 0 3.239.518 4.356 1.555 1.117 1.038 1.676 2.383 1.676 4.036zm-8.617-.68h5.002c-.016-.779-.231-1.378-.646-1.8-.415-.421-1.013-.632-1.795-.632s-1.404.227-1.867.681c-.447.438-.678 1.021-.694 1.75zm22.184 3.864h1.316v6.2h-3.566v-2.918h-6.965v2.917h-3.662v-6.199h1.268c.718-.356 1.077-1.15 1.077-2.382v-6.053h10.532v8.435zm-6.965-5.688v3.209c0 1.102-.272 2.058-.814 2.868h4.141v-6.077h-3.327zm18.373 2.091l-4.212 5.98v.9h-3.662V20.5h3.662v7.05l4.212-6.005V20.5h3.639v11.717h-3.639v-6.88zm15.951-4.838v3.233h-3.231v8.484h-3.662v-8.484h-3.208v-3.233h10.101zm2.167 0h3.662v3.67h2.394c1.531 0 2.688.39 3.47 1.168.798.761 1.197 1.718 1.197 2.868 0 1.054-.415 1.985-1.245 2.796-.814.81-1.954 1.215-3.422 1.215h-6.056V20.501zm11.824 11.717V20.501H232v11.717h-3.662zm-8.162-5.567v3.16h1.723c.511 0 .902-.145 1.173-.437.287-.292.431-.673.431-1.142 0-.47-.144-.851-.431-1.143-.271-.292-.654-.438-1.149-.438h-1.747zM42 30.756h4.286c.947 0 1.714-.768 1.714-1.715v-5.143c0-.946-.767-1.714-1.714-1.714H42v8.572z"/><path d="M29.143 41.041H16.286C7.329 41.041 0 33.713 0 24.755 0 15.798 7.329 8.47 16.286 8.47h12.857c8.957 0 16.285 7.328 16.285 16.285 0 8.958-7.328 16.286-16.285 16.286z"/><path d="M29.143 4.22v6.821c0 .947.767 1.715 1.714 1.715h2.45c1.031 0 1.849-.91 1.702-1.932-.647-4.518-3.487-6.736-4.965-7.255a.683.683 0 00-.901.651zM40.286 23.042a.856.856 0 01-.803-.558c-.259-.692-.953-1.157-1.73-1.157-.775 0-1.47.465-1.729 1.157a.856.856 0 11-1.605-.6c.506-1.359 1.846-2.271 3.335-2.271 1.488 0 2.828.913 3.334 2.271a.857.857 0 01-.802 1.158zM26.125 13h-12.25c-.483 0-.875-.448-.875-1s.392-1 .875-1h12.25c.483 0 .875.448.875 1s-.392 1-.875 1z"/><path d="M41.307 35.53a16.125 16.125 0 01-6.164 1.225h-1.861c.043-2.3-1.806-4.285-4.21-4.285a4.215 4.215 0 00-4.215 4.215v.07h-2.571C13.328 36.755 6 29.427 6 20.47c0-4.127 1.568-7.896 4.122-10.774C4.199 12.14 0 17.978 0 24.756c0 9.237 4.713 16.708 6.325 18.992.321.456.84.722 1.398.722h3.42c.946 0 1.714-.768 1.714-1.715v-2.087a16.17 16.17 0 003.429.373h8.571v1.714c0 .947.768 1.715 1.715 1.715h3.756c.809 0 1.507-.565 1.677-1.355l.521-2.435a16.344 16.344 0 008.78-5.15z"/><path fill-rule="evenodd" clip-rule="evenodd" d="M19 32a1 1 0 01-1-1V19a1 1 0 011-1h1v13a1 1 0 01-1 1zm4.39-12H20v-2h3.39a4.5 4.5 0 013.417 1.571c1.444 1.686 1.444 3.172 0 4.858A4.5 4.5 0 0123.39 26H20v-2h3.39a2.5 2.5 0 001.898-.873c.475-.554.504-1.666 0-2.254A2.5 2.5 0 0023.39 20z"/><path d="M16 29a1 1 0 011-1h7a1 1 0 010 2h-7a1 1 0 01-1-1z"/><path fill-rule="evenodd" clip-rule="evenodd" d="M20 6a5 5 0 00-4.584 7h9.168A5 5 0 0020 6z"/><path d="M20 8.25A2.75 2.75 0 0018.113 13h3.774A2.75 2.75 0 0020 8.25z"/></symbol></svg>