<svg width="164" height="164" fill="none" xmlns="http://www.w3.org/2000/svg"><path d="M6.593 0C2.32 12.55 0 26.004 0 40c0 68.483 55.517 124 124 124 13.996 0 27.45-2.319 40-6.593v-1.057c-12.54 4.31-25.997 6.65-40 6.65C56.069 163 1 107.931 1 40 1 25.997 3.34 12.54 7.65 0H6.593z" fill="#fff" fill-opacity=".2"/><path d="M41.127 0C35.28 12.095 32 25.665 32 40c0 50.81 41.19 92 92 92 14.335 0 27.905-3.279 40-9.127v-1.113c-12.073 5.918-25.648 9.24-40 9.24-50.258 0-91-40.742-91-91 0-14.352 3.322-27.927 9.24-40h-1.113z" fill="#fff" fill-opacity=".4"/><path d="M79.278 0C69.778 10.615 64 24.633 64 40c0 33.137 26.863 60 60 60 15.367 0 29.385-5.777 40-15.278v-1.351C153.486 93.073 139.435 99 124 99c-32.585 0-59-26.415-59-59 0-15.435 5.927-29.486 15.63-40h-1.352z" fill="#fff" fill-opacity=".6"/></svg>