<svg xmlns="http://www.w3.org/2000/svg" width="284" height="96" viewBox="0 0 284 96"><defs><clipPath id="u0soa"><path fill="#fff" d="M56.8 0c0 31.37-25.43 56.8-56.8 56.8-31.37 0-56.8-25.43-56.8-56.8 0-31.37 25.43-56.8 56.8-56.8 31.37 0 56.8 25.43 56.8 56.8z"/></clipPath><clipPath id="u0sob"><path fill="#fff" d="M113.6 0c0 62.74-50.86 113.6-113.6 113.6-62.74 0-113.6-50.86-113.6-113.6 0-62.74 50.86-113.6 113.6-113.6 62.74 0 113.6 50.86 113.6 113.6z"/></clipPath><clipPath id="u0soc"><path fill="#fff" d="M170.4 0c0 94.109-76.291 170.4-170.4 170.4-94.11 0-170.4-76.291-170.4-170.4 0-94.11 76.29-170.4 170.4-170.4 94.109 0 170.4 76.29 170.4 170.4z"/></clipPath><clipPath id="u0sod"><path fill="#fff" d="M227.2 0c0 125.479-101.721 227.2-227.2 227.2-125.479 0-227.2-101.721-227.2-227.2 0-125.479 101.721-227.2 227.2-227.2 125.479 0 227.2 101.721 227.2 227.2z"/></clipPath><clipPath id="u0soe"><path fill="#fff" d="M284 0c0 156.849-127.151 284-284 284S-284 156.849-284 0-156.849-284 0-284 284-156.849 284 0z"/></clipPath></defs><g><g clip-path="url(#clip-88:598)" opacity=".8"><g opacity=".8"><path fill="none" stroke="#fff" stroke-miterlimit="20" stroke-width="2" d="M56.8 0c0 31.37-25.43 56.8-56.8 56.8-31.37 0-56.8-25.43-56.8-56.8 0-31.37 25.43-56.8 56.8-56.8 31.37 0 56.8 25.43 56.8 56.8z" clip-path="url(&quot;#u0soa&quot;)"/></g><g opacity=".8"><path fill="none" stroke="#fff" stroke-miterlimit="20" stroke-opacity=".8" stroke-width="2" d="M113.6 0c0 62.74-50.86 113.6-113.6 113.6-62.74 0-113.6-50.86-113.6-113.6 0-62.74 50.86-113.6 113.6-113.6 62.74 0 113.6 50.86 113.6 113.6z" clip-path="url(&quot;#u0sob&quot;)"/></g><g opacity=".8"><path fill="none" stroke="#fff" stroke-miterlimit="20" stroke-opacity=".6" stroke-width="2" d="M170.4 0c0 94.109-76.291 170.4-170.4 170.4-94.11 0-170.4-76.291-170.4-170.4 0-94.11 76.29-170.4 170.4-170.4 94.109 0 170.4 76.29 170.4 170.4z" clip-path="url(&quot;#u0soc&quot;)"/></g><g opacity=".8"><path fill="none" stroke="#fff" stroke-miterlimit="20" stroke-opacity=".4" stroke-width="2" d="M227.2 0c0 125.479-101.721 227.2-227.2 227.2-125.479 0-227.2-101.721-227.2-227.2 0-125.479 101.721-227.2 227.2-227.2 125.479 0 227.2 101.721 227.2 227.2z" clip-path="url(&quot;#u0sod&quot;)"/></g><g opacity=".8"><path fill="none" stroke="#fff" stroke-miterlimit="20" stroke-opacity=".2" stroke-width="2" d="M284 0c0 156.849-127.151 284-284 284S-284 156.849-284 0-156.849-284 0-284 284-156.849 284 0z" clip-path="url(&quot;#u0soe&quot;)"/></g></g></g></svg>