<svg width="16" height="14" viewBox="0 0 16 14" fill="none" xmlns="http://www.w3.org/2000/svg">
<path d="M8.67963 0.320506L4.71221 4.32179C4.44723 4.58903 4.29684 4.95738 4.29684 5.34017V12.5555C4.29684 13.35 4.94137 14 5.72913 14H12.1744C12.7473 14 13.2629 13.6533 13.4921 13.1261L15.8267 7.62972C16.4283 6.19965 15.3899 4.6107 13.8502 4.6107H9.80397L10.4843 1.30277C10.5559 0.941645 10.4485 0.573295 10.1907 0.313284C9.76816 -0.105624 9.09499 -0.105624 8.67963 0.320506ZM1.43228 14C2.22004 14 2.86456 13.35 2.86456 12.5555V6.77746C2.86456 5.98298 2.22004 5.33295 1.43228 5.33295C0.644527 5.33295 0 5.98298 0 6.77746V12.5555C0 13.35 0.644527 14 1.43228 14Z" fill="#FFDD2D"/>
</svg>
