<svg width="42" height="12" viewBox="0 0 42 12" fill="none" xmlns="http://www.w3.org/2000/svg">
<path fill-rule="evenodd" clip-rule="evenodd" d="M11.3176 2.28309e-07V0.00524037C11.3124 0.00524037 9.67706 1.99896e-07 9.24097 1.57728C8.84122 3.02356 7.71465 7.01656 7.6835 7.1266H7.37201C7.37201 7.1266 6.21948 3.04453 5.81454 1.57204C5.37845 -0.00523997 3.73792 2.28309e-07 3.73792 2.28309e-07H0V11.9999H3.73792V4.87334H3.89367H4.04941L6.22986 11.9999H8.82564L11.0061 4.87858H11.3176V11.9999H15.0555V2.28309e-07H11.3176Z" fill="#4DB45E"/>
<path fill-rule="evenodd" clip-rule="evenodd" d="M24.972 0C24.972 0 23.8766 0.0995628 23.3626 1.25764L20.7149 7.1266H20.4034V0H16.6655V11.9999H20.1958C20.1958 11.9999 21.3431 11.8951 21.8571 10.7423L24.4529 4.87334H24.7644V11.9999H28.5023V0H24.972Z" fill="#4DB45E"/>
<path fill-rule="evenodd" clip-rule="evenodd" d="M30.1626 5.44977V12H33.9005V8.17464H37.9499C39.7151 8.17464 41.2102 7.03753 41.7657 5.44977H30.1626Z" fill="#4DB45E"/>
<path fill-rule="evenodd" clip-rule="evenodd" d="M37.9503 0H29.6387C30.054 2.2847 31.7516 4.11875 33.9477 4.71613C34.4461 4.85238 34.9704 4.92574 35.5103 4.92574H41.9167C41.9738 4.65325 41.9998 4.37552 41.9998 4.08731C41.9998 1.82881 40.1879 0 37.9503 0Z" fill="url(#paint0_linear)"/>
<defs>
<linearGradient id="paint0_linear" x1="29.6397" y1="2.46287" x2="41.9998" y2="2.46287" gradientUnits="userSpaceOnUse">
<stop offset="0.3" stop-color="#00B4E6"/>
<stop offset="1" stop-color="#088CCB"/>
</linearGradient>
</defs>
</svg>
