<svg width="24" height="16" viewBox="0 0 24 16" fill="none" xmlns="http://www.w3.org/2000/svg">
<rect width="24" height="16" rx="2" fill="#56B356"/>
<path fill-rule="evenodd" clip-rule="evenodd" d="M2 11.0354V4.96456C3.53285 4.7453 4.7453 3.53285 4.96456 2H19.0354C19.2547 3.53285 20.4672 4.7453 22 4.96456V11.0354C20.4672 11.2547 19.2547 12.4672 19.0354 14H4.96456C4.7453 12.4672 3.53285 11.2547 2 11.0354ZM12 11C13.6569 11 15 9.65685 15 8C15 6.34315 13.6569 5 12 5C10.3431 5 9 6.34315 9 8C9 9.65685 10.3431 11 12 11Z" fill="#BBE8A6"/>
</svg>
