<svg width="16" height="14" viewBox="0 0 16 14" fill="none" xmlns="http://www.w3.org/2000/svg">
<path d="M8.67963 13.6795L4.71221 9.67821C4.44723 9.41097 4.29684 9.04262 4.29684 8.65983V1.44451C4.29684 0.650028 4.94137 0 5.72913 0H12.1744C12.7473 0 13.2629 0.346682 13.4921 0.873927L15.8267 6.37028C16.4283 7.80035 15.3899 9.3893 13.8502 9.3893H9.80397L10.4843 12.6972C10.5559 13.0584 10.4485 13.4267 10.1907 13.6867C9.76816 14.1056 9.09499 14.1056 8.67963 13.6795ZM1.43228 0C2.22004 0 2.86456 0.650028 2.86456 1.44451V7.22254C2.86456 8.01702 2.22004 8.66705 1.43228 8.66705C0.644527 8.66705 0 8.01702 0 7.22254V1.44451C0 0.650028 0.644527 0 1.43228 0Z" fill="#151515" fill-opacity="0.1"/>
</svg>
