<svg width="44" height="14" fill="none" xmlns="http://www.w3.org/2000/svg"><path d="M16.708.247l-5.76 13.54h-3.76L4.354 2.982c-.172-.664-.32-.908-.844-1.189C2.655 1.334 1.243.906.002.64L.086.247h6.05c.77 0 1.464.505 1.64 1.38l1.498 7.836L12.973.247h3.735zm5.08 0l-2.939 13.54h-3.556l2.94-13.54h3.556zm9.646 9.12c.014-3.573-5.015-3.772-4.982-5.368.012-.485.481-1.002 1.509-1.134.508-.065 1.914-.117 3.506.606L32.09.598A9.712 9.712 0 0028.764 0c-3.514 0-5.987 1.84-6.007 4.475-.023 1.95 1.766 3.037 3.112 3.686 1.386.663 1.85 1.09 1.844 1.682-.01.909-1.107 1.311-2.127 1.326-1.788.028-2.824-.476-3.651-.856l-.646 2.968c.832.376 2.365.702 3.953.719 3.737 0 6.18-1.818 6.192-4.633zm9.281 4.42h3.287L41.13.248h-3.033c-.684 0-1.259.391-1.514.993l-5.335 12.548h3.734l.74-2.023h4.562l.431 2.022zM36.746 8.99l1.872-5.085 1.076 5.085h-2.948z" fill="#1A1F71"/></svg>