<svg width="25" height="16" fill="none" xmlns="http://www.w3.org/2000/svg"><path d="M9.123 1.711h6.76V14.29h-6.76V1.71z" fill="#FF5F00"/><path d="M9.553 8a8.128 8.128 0 012.94-6.289A7.513 7.513 0 007.728 0C3.458 0 .003 3.578.003 8c0 4.422 3.455 8 7.725 8a7.513 7.513 0 004.764-1.711c-1.78-1.445-2.94-3.733-2.94-6.289z" fill="#EB001B"/><path d="M25.003 8c0 4.422-3.455 8-7.725 8a7.513 7.513 0 01-4.764-1.711c1.802-1.467 2.94-3.733 2.94-6.289a8.128 8.128 0 00-2.94-6.289A7.513 7.513 0 0117.278 0c4.27 0 7.725 3.6 7.725 8z" fill="#F79E1B"/></svg>