<svg width="10" height="10" viewBox="0 0 10 10" fill="none" xmlns="http://www.w3.org/2000/svg">
<path fill-rule="evenodd" clip-rule="evenodd" d="M0.279313 1.61905L3.67957 4.97901L0.279313 8.38644C0.100415 8.56427 0 8.80484 0 9.05559C0 9.30634 0.100415 9.5469 0.279313 9.72473C0.369065 9.8127 0.475506 9.8823 0.592534 9.92953C0.709562 9.97676 0.834874 10.0007 0.961285 9.99998C1.0877 10.0007 1.21301 9.97676 1.33004 9.92953C1.44706 9.8823 1.55351 9.8127 1.64326 9.72473L5 6.36864L8.35674 9.72473C8.44649 9.8127 8.55294 9.8823 8.66996 9.92953C8.78699 9.97676 8.9123 10.0007 9.03871 9.99998C9.16513 10.0007 9.29044 9.97676 9.40747 9.92953C9.52449 9.8823 9.63094 9.8127 9.72069 9.72473C9.89959 9.5469 10 9.30634 10 9.05559C10 8.80484 9.89959 8.56427 9.72069 8.38644L6.32043 4.97901L9.72069 1.61905C9.89959 1.44121 10 1.20065 10 0.949901C10 0.699151 9.89959 0.458589 9.72069 0.280755C9.63139 0.191793 9.52516 0.121182 9.40811 0.0729957C9.29106 0.0248089 9.16551 0 9.03871 0C8.91191 0 8.78637 0.0248089 8.66932 0.0729957C8.55227 0.121182 8.44604 0.191793 8.35674 0.280755L5 3.59773L1.64326 0.280755C1.55396 0.191793 1.44773 0.121182 1.33068 0.0729957C1.21363 0.0248089 1.08809 0 0.961285 0C0.834485 0 0.708939 0.0248089 0.59189 0.0729957C0.474841 0.121182 0.368607 0.191793 0.279313 0.280755C0.100415 0.458589 0 0.699151 0 0.949901C0 1.20065 0.100415 1.44121 0.279313 1.61905Z" fill="#151515" fill-opacity="0.3"/>
</svg>
