<svg width="21" height="18" fill="none" xmlns="http://www.w3.org/2000/svg"><path d="M19.031 5.143h-.656V3.214a.65.65 0 00-.656-.642H1.969C.883 2.572 0 3.437 0 4.5v11.571C0 17.135.883 18 1.969 18H19.03a.65.65 0 00.657-.643V5.786a.65.65 0 00-.657-.643z" fill="#FFDD2D"/><path d="M1.969 3.857h15.094v1.286H1.969a.65.65 0 01-.657-.643.65.65 0 01.657-.643z" fill="#FAFAFA"/><path d="M20.344 12.857h-3.938c-1.086 0-1.968-.864-1.968-1.928 0-1.066.881-1.929 1.968-1.929h3.938a.65.65 0 01.656.643v2.571a.65.65 0 01-.656.643z" fill="#C8AD20"/><path d="M16.812 5.143L14.368.355a.665.665 0 00-.88-.288L3.125 5.143h13.686z" fill="#37BB44"/><path d="M1.313 5.143h12.874L11.743.355a.663.663 0 00-.88-.287l-9.55 4.678v.397z" fill="#45DC54"/></svg>