<svg width="30" height="18" fill="none" xmlns="http://www.w3.org/2000/svg"><path d="M23 6c0 .715-.25 1.37-.667 1.886a2 2 0 100-3.772C22.75 4.629 23 5.285 23 6z" fill="#151515"/><path fill-rule="evenodd" clip-rule="evenodd" d="M2 0a2 2 0 00-2 2v14a2 2 0 002 2h26a2 2 0 002-2V2a2 2 0 00-2-2H2zm18 9c.546 0 1.059-.146 1.5-.401a3 3 0 100-5.197A3 3 0 1020 9zM4.5 14a.5.5 0 000 1h3a.5.5 0 000-1h-3zM4 11.5a.5.5 0 01.5-.5h9a.5.5 0 010 1h-9a.5.5 0 01-.5-.5zm6.5 2.5a.5.5 0 000 1h3a.5.5 0 000-1h-3zm5.5.5a.5.5 0 01.5-.5h3a.5.5 0 010 1h-3a.5.5 0 01-.5-.5zm6.5-.5a.5.5 0 000 1h3a.5.5 0 000-1h-3z" fill="#151515"/></svg>