<svg width="30" height="18" fill="none" xmlns="http://www.w3.org/2000/svg"><path fill-rule="evenodd" clip-rule="evenodd" d="M28 1H2a1 1 0 00-1 1v14a1 1 0 001 1h26a1 1 0 001-1V2a1 1 0 00-1-1zM2 0a2 2 0 00-2 2v14a2 2 0 002 2h26a2 2 0 002-2V2a2 2 0 00-2-2H2z" fill="#151515"/><path fill-rule="evenodd" clip-rule="evenodd" d="M0 4.917A4.167 4.167 0 004.917 0H3.889A3.17 3.17 0 010 3.89v1.027zm30 0A4.167 4.167 0 0125.083 0h1.028A3.167 3.167 0 0030 3.89v1.027zm0 8.166A4.167 4.167 0 0025.083 18h1.028A3.167 3.167 0 0130 14.11v-1.027zm-30 0A4.167 4.167 0 014.917 18H3.889A3.17 3.17 0 000 14.11v-1.027z" fill="#151515"/><path d="M12 4h1v10h-1V4z" fill="#151515"/><path fill-rule="evenodd" clip-rule="evenodd" d="M16.5 5h-4V4h4c.413 0 1.022.12 1.542.494.546.393.958 1.043.958 2.006v1c0 .413-.12 1.022-.494 1.542-.393.546-1.043.958-2.006.958h-4V9h4c.637 0 .987-.254 1.194-.542.226-.314.306-.705.306-.958v-1c0-.637-.254-.987-.542-1.194A1.736 1.736 0 0016.5 5z" fill="#151515"/><path d="M11 11h6v1h-6v-1z" fill="#151515"/></svg>