<svg width="42" height="12" fill="none" xmlns="http://www.w3.org/2000/svg"><path fill-rule="evenodd" clip-rule="evenodd" d="M11.318 0v.005c-.006 0-1.64-.005-2.077 1.572-.4 1.447-1.526 5.44-1.557 5.55h-.312S6.219 3.045 5.815 1.572C5.378-.005 3.738 0 3.738 0H0v12h3.738V4.873h.311L6.23 12h2.597l2.18-7.121h.312v7.12h3.738V0h-3.738zm13.654 0s-1.095.1-1.61 1.258l-2.647 5.869h-.312V0h-3.737v12h3.53s1.147-.105 1.661-1.258l2.596-5.869h.311V12h3.738V0h-3.53zm5.191 5.45V12H33.9V8.175h4.049a4.047 4.047 0 003.816-2.725H30.163z" fill="#4DB45E"/><path fill-rule="evenodd" clip-rule="evenodd" d="M37.95 0h-8.31a6.006 6.006 0 004.309 4.716 5.92 5.92 0 001.562.21h6.407c.057-.273.083-.55.083-.839C42 1.83 40.188 0 37.95 0z" fill="url(#paint0_linear)"/><defs><linearGradient id="paint0_linear" x1="29.64" y1="2.463" x2="42" y2="2.463" gradientUnits="userSpaceOnUse"><stop offset=".3" stop-color="#00B4E6"/><stop offset="1" stop-color="#088CCB"/></linearGradient></defs></svg>