<svg width="232" height="48" fill="none" xmlns="http://www.w3.org/2000/svg"><path d="M73.071 23.515c1.006.098 1.828.503 2.466 1.216.654.697.981 1.62.981 2.771 0 1.459-.479 2.61-1.436 3.452-.957.843-2.266 1.264-3.925 1.264H64V15.202h6.893c1.66 0 2.968.397 3.926 1.19.973.779 1.46 1.856 1.46 3.234 0 1.086-.287 1.96-.862 2.625-.574.649-1.356 1.07-2.346 1.264zm-3.04-5.47h-2.154v4.133h2.155c.734 0 1.308-.178 1.723-.534.43-.373.646-.884.646-1.532s-.207-1.15-.622-1.507c-.415-.373-.997-.56-1.747-.56zm.264 11.183c.718 0 1.284-.194 1.7-.583.414-.405.622-.956.622-1.653 0-.632-.216-1.135-.647-1.508-.415-.389-.973-.583-1.675-.583h-2.418v4.327h2.418zm13.834 3.355c-1.883 0-3.383-.567-4.5-1.702-1.117-1.15-1.675-2.658-1.675-4.521 0-1.864.558-3.363 1.675-4.498 1.117-1.134 2.617-1.701 4.5-1.701 1.707 0 3.096.43 4.165 1.288 1.069.86 1.675 2.026 1.819 3.5H86.45c-.272-1.101-1.037-1.652-2.298-1.652-.798 0-1.42.267-1.867.802-.447.535-.67 1.288-.67 2.26 0 .973.223 1.727.67 2.261.447.535 1.069.803 1.867.803 1.26 0 2.026-.519 2.298-1.556h3.662c-.144 1.442-.75 2.593-1.82 3.452-1.068.842-2.457 1.264-4.164 1.264zm19.824-6.831c0 .486-.032 1.029-.096 1.629h-8.521c.032.761.287 1.353.766 1.774.478.422 1.125.632 1.938.632 1.117 0 1.835-.364 2.155-1.094h3.59c-.176 1.151-.798 2.09-1.867 2.82-1.053.713-2.346 1.07-3.878 1.07-1.962 0-3.51-.551-4.643-1.653-1.133-1.102-1.7-2.626-1.7-4.57 0-1.913.567-3.42 1.7-4.522 1.133-1.118 2.64-1.677 4.524-1.677 1.787 0 3.239.518 4.356 1.555 1.117 1.038 1.676 2.383 1.676 4.036zm-8.617-.68h5.002c-.016-.779-.231-1.378-.646-1.8-.415-.421-1.013-.632-1.795-.632s-1.404.227-1.867.681c-.447.438-.678 1.021-.694 1.75zm10.711 7.146V20.501h5.482l2.704 7.487 2.729-7.487h5.409v11.717h-3.494v-8.605l-3.256 8.605h-2.752l-3.327-8.605v8.605h-3.495zm32.667-8.605l6.654 8.605h-4.596l-5.577-7.803v7.803h-3.877V15.202h3.877v7.074h.431c.527 0 .965-.308 1.316-.924l2.466-3.938c.526-.86 1.053-1.459 1.58-1.8.526-.356 1.172-.534 1.938-.534h1.604v3.452h-.79c-.542 0-1.085.43-1.628 1.288l-1.795 2.918a1.627 1.627 0 01-.622.656 1.666 1.666 0 01-.79.219h-.191zm15.775-3.428c1.58 0 2.856.567 3.83 1.702.989 1.134 1.484 2.625 1.484 4.473 0 1.83-.503 3.322-1.508 4.473-1.006 1.134-2.306 1.701-3.902 1.701-.829 0-1.571-.186-2.226-.559-.654-.373-1.133-.843-1.436-1.41v6.515h-3.662V20.501h3.662v1.677c.303-.583.798-1.061 1.484-1.434a4.684 4.684 0 012.274-.559zm-1.149 9.262c.798 0 1.452-.284 1.963-.85.51-.584.766-1.33.766-2.237 0-.908-.256-1.645-.766-2.212-.511-.568-1.165-.851-1.963-.851-.83 0-1.5.283-2.01.85-.511.568-.766 1.305-.766 2.213 0 .923.255 1.669.766 2.236.526.567 1.196.85 2.01.85zm20.081-3.695c0 .486-.032 1.029-.096 1.629h-8.521c.032.761.287 1.353.766 1.774.479.422 1.125.632 1.939.632 1.117 0 1.835-.364 2.154-1.094h3.59c-.175 1.151-.798 2.09-1.867 2.82-1.053.713-2.345 1.07-3.877 1.07-1.963 0-3.511-.551-4.644-1.653-1.133-1.102-1.699-2.626-1.699-4.57 0-1.913.566-3.42 1.699-4.522 1.133-1.118 2.641-1.677 4.524-1.677 1.787 0 3.239.518 4.356 1.555 1.117 1.038 1.676 2.383 1.676 4.036zm-8.617-.68h5.002c-.016-.779-.231-1.378-.646-1.8-.415-.421-1.013-.632-1.795-.632s-1.404.227-1.867.681c-.447.438-.678 1.021-.694 1.75zm22.184 3.864h1.316v6.2h-3.566v-2.918h-6.965v2.917h-3.662v-6.199h1.268c.718-.356 1.077-1.15 1.077-2.382v-6.053h10.532v8.435zm-6.965-5.688v3.209c0 1.102-.272 2.058-.814 2.868h4.141v-6.077h-3.327zm18.373 2.091l-4.212 5.98v.9h-3.662V20.5h3.662v7.05l4.212-6.005V20.5h3.639v11.717h-3.639v-6.88zm15.951-4.838v3.233h-3.231v8.484h-3.662v-8.484h-3.208v-3.233h10.101zm2.167 0h3.662v3.67h2.394c1.531 0 2.688.39 3.47 1.168.798.761 1.197 1.718 1.197 2.868 0 1.054-.415 1.985-1.245 2.796-.814.81-1.954 1.215-3.422 1.215h-6.056V20.501zm11.824 11.717V20.501H232v11.717h-3.662zm-8.162-5.567v3.16h1.723c.511 0 .902-.145 1.173-.437.287-.292.431-.673.431-1.142 0-.47-.144-.851-.431-1.143-.271-.292-.654-.438-1.149-.438h-1.747z" fill="#151515"/><path d="M42 30.756h4.286c.947 0 1.714-.768 1.714-1.715v-5.143c0-.946-.767-1.714-1.714-1.714H42v8.572z" fill="#F8C616"/><path d="M29.143 41.041H16.286C7.329 41.041 0 33.713 0 24.755 0 15.798 7.329 8.47 16.286 8.47h12.857c8.957 0 16.285 7.328 16.285 16.285 0 8.958-7.328 16.286-16.285 16.286z" fill="#FFDD2D"/><path d="M29.143 4.22v6.821c0 .947.767 1.715 1.714 1.715h2.45c1.031 0 1.849-.91 1.702-1.932-.647-4.518-3.487-6.736-4.965-7.255a.683.683 0 00-.901.651z" fill="#F8C616"/><path d="M40.286 23.042a.856.856 0 01-.803-.558c-.259-.692-.953-1.157-1.73-1.157-.775 0-1.47.465-1.729 1.157a.856.856 0 11-1.605-.6c.506-1.359 1.846-2.271 3.335-2.271 1.488 0 2.828.913 3.334 2.271a.857.857 0 01-.802 1.158zM26.125 13h-12.25c-.483 0-.875-.448-.875-1s.392-1 .875-1h12.25c.483 0 .875.448.875 1s-.392 1-.875 1z" fill="#D0A50A"/><path d="M41.307 35.53a16.125 16.125 0 01-6.164 1.225h-1.861c.043-2.3-1.806-4.285-4.21-4.285a4.215 4.215 0 00-4.215 4.215v.07h-2.571C13.328 36.755 6 29.427 6 20.47c0-4.127 1.568-7.896 4.122-10.774C4.199 12.14 0 17.978 0 24.756c0 9.237 4.713 16.708 6.325 18.992.321.456.84.722 1.398.722h3.42c.946 0 1.714-.768 1.714-1.715v-2.087a16.17 16.17 0 003.429.373h8.571v1.714c0 .947.768 1.715 1.715 1.715h3.756c.809 0 1.507-.565 1.677-1.355l.521-2.435a16.344 16.344 0 008.78-5.15z" fill="#F8C616"/><path fill-rule="evenodd" clip-rule="evenodd" d="M19 32a1 1 0 01-1-1V19a1 1 0 011-1h1v13a1 1 0 01-1 1zm4.39-12H20v-2h3.39a4.5 4.5 0 013.417 1.571c1.444 1.686 1.444 3.172 0 4.858A4.5 4.5 0 0123.39 26H20v-2h3.39a2.5 2.5 0 001.898-.873c.475-.554.504-1.666 0-2.254A2.5 2.5 0 0023.39 20z" fill="#fff"/><path d="M16 29a1 1 0 011-1h7a1 1 0 010 2h-7a1 1 0 01-1-1z" fill="#fff"/><path fill-rule="evenodd" clip-rule="evenodd" d="M20 6a5 5 0 00-4.584 7h9.168A5 5 0 0020 6z" fill="#C3C3C3"/><path d="M20 8.25A2.75 2.75 0 0018.113 13h3.774A2.75 2.75 0 0020 8.25z" fill="#DDD"/></svg>